<svg width="1433" height="256" viewBox="0 0 1433 256" fill="none" xmlns="http://www.w3.org/2000/svg">
<mask id="mask0_830_8842" style="mask-type:alpha" maskUnits="userSpaceOnUse" x="1" y="1" width="254" height="254">
<path d="M134.583 245.577C130.346 247.212 125.653 247.212 121.417 245.577V245.577C88.3613 232.887 59.9331 210.467 39.8873 181.28C19.8415 152.093 9.12125 117.511 9.1427 82.103V34.3773C9.13266 32.375 9.76735 30.4227 10.9529 28.809C12.1384 27.1954 13.8118 26.0062 15.7256 25.4173C88.9941 3.66103 167.006 3.66103 240.274 25.4173C242.188 26.0062 243.861 27.1954 245.047 28.809C246.232 30.4227 246.867 32.375 246.857 34.3773V82.103C246.878 117.511 236.158 152.093 216.112 181.28C196.067 210.467 167.638 232.887 134.583 245.577V245.577Z" fill="#18D6EA" stroke="#18D6EA" stroke-width="16" stroke-linecap="round" stroke-linejoin="round"/>
</mask>
<g mask="url(#mask0_830_8842)">
<path d="M-73 169V-56C84.6667 -112.333 374 -187.2 270 7.99999C166 203.2 -2 196.667 -73 169Z" fill="#24E2C5"/>
<path d="M-25.9927 191.984C153 222 340 80.0003 306 -71.9997C334.001 -52.2334 406.526 -14.9773 451.124 -19.2269C506.871 -24.539 447.764 103.646 464.119 117.155C477.203 127.963 482.472 257.045 483.47 320.235L-9.29754 367.19L-25.9927 191.984Z" fill="#24E2C5"/>
<path d="M20 31.5001C2.00009 38.1857 18.1456 121.627 20.0001 110.5C23.0002 92.5001 13.0906 56.2682 49.0001 36.0001C87.5002 22.0001 171.5 19.7917 160 15C142.077 7.53212 55 18.5001 20 31.5001Z" fill="white"/>
</g>
<path d="M418.105 196.95C406.145 196.95 396.2 194.74 388.27 190.32C380.47 185.9 374.555 179.725 370.525 171.795C366.495 163.865 364.285 154.635 363.895 144.105C363.765 138.775 363.7 133.055 363.7 126.945C363.7 120.835 363.765 114.985 363.895 109.395C364.285 98.865 366.495 89.635 370.525 81.705C374.555 73.775 380.47 67.6 388.27 63.18C396.2 58.76 406.145 56.55 418.105 56.55C427.075 56.55 434.94 57.785 441.7 60.255C448.46 62.725 454.05 66.04 458.47 70.2C463.02 74.36 466.465 79.04 468.805 84.24C471.145 89.31 472.445 94.575 472.705 100.035C472.835 101.205 472.445 102.18 471.535 102.96C470.755 103.74 469.78 104.13 468.61 104.13H457.885C456.715 104.13 455.675 103.805 454.765 103.155C453.985 102.505 453.4 101.335 453.01 99.645C450.8 89.505 446.64 82.55 440.53 78.78C434.55 75.01 427.01 73.125 417.91 73.125C407.51 73.125 399.255 76.115 393.145 82.095C387.035 87.945 383.72 97.37 383.2 110.37C382.81 121.03 382.81 131.95 383.2 143.13C383.72 156.13 387.035 165.62 393.145 171.6C399.255 177.45 407.51 180.375 417.91 180.375C427.01 180.375 434.55 178.49 440.53 174.72C446.64 170.95 450.8 163.995 453.01 153.855C453.4 152.165 453.985 150.995 454.765 150.345C455.675 149.695 456.715 149.37 457.885 149.37H468.61C469.78 149.37 470.755 149.76 471.535 150.54C472.445 151.32 472.835 152.295 472.705 153.465C472.445 158.925 471.145 164.255 468.805 169.455C466.465 174.525 463.02 179.14 458.47 183.3C454.05 187.46 448.46 190.775 441.7 193.245C434.94 195.715 427.075 196.95 418.105 196.95ZM514.048 232.05C513.008 232.05 512.098 231.66 511.318 230.88C510.538 230.1 510.148 229.19 510.148 228.15C510.148 227.63 510.213 227.11 510.343 226.59C510.473 226.07 510.733 225.42 511.123 224.64L526.138 188.955L488.893 101.01C488.243 99.45 487.918 98.345 487.918 97.695C487.918 96.525 488.308 95.55 489.088 94.77C489.868 93.99 490.843 93.6 492.013 93.6H501.568C502.868 93.6 503.908 93.925 504.688 94.575C505.468 95.225 505.988 96.005 506.248 96.915L535.888 167.895L566.308 96.915C566.698 96.005 567.218 95.225 567.868 94.575C568.648 93.925 569.753 93.6 571.183 93.6H580.348C581.518 93.6 582.493 93.99 583.273 94.77C584.053 95.55 584.443 96.46 584.443 97.5C584.443 98.15 584.118 99.32 583.468 101.01L528.088 228.735C527.698 229.645 527.113 230.425 526.333 231.075C525.683 231.725 524.643 232.05 523.213 232.05H514.048ZM653.82 196.95C646.02 196.95 639.52 195.585 634.32 192.855C629.12 189.995 624.96 186.485 621.84 182.325V190.515C621.84 191.815 621.385 192.92 620.475 193.83C619.695 194.61 618.655 195 617.355 195H608.385C607.085 195 605.98 194.61 605.07 193.83C604.29 192.92 603.9 191.815 603.9 190.515V61.035C603.9 59.735 604.29 58.695 605.07 57.915C605.98 57.005 607.085 56.55 608.385 56.55H617.745C619.175 56.55 620.28 57.005 621.06 57.915C621.84 58.695 622.23 59.735 622.23 61.035V105.885C625.48 101.855 629.64 98.475 634.71 95.745C639.91 93.015 646.28 91.65 653.82 91.65C661.1 91.65 667.275 92.95 672.345 95.55C677.545 98.02 681.77 101.465 685.02 105.885C688.4 110.305 690.935 115.31 692.625 120.9C694.315 126.49 695.225 132.34 695.355 138.45C695.485 140.53 695.55 142.48 695.55 144.3C695.55 146.12 695.485 148.07 695.355 150.15C695.225 156.39 694.315 162.305 692.625 167.895C690.935 173.485 688.4 178.49 685.02 182.91C681.77 187.2 677.545 190.645 672.345 193.245C667.275 195.715 661.1 196.95 653.82 196.95ZM649.725 181.155C656.485 181.155 661.75 179.725 665.52 176.865C669.42 173.875 672.215 170.04 673.905 165.36C675.595 160.55 676.57 155.415 676.83 149.955C676.96 146.185 676.96 142.415 676.83 138.645C676.57 133.185 675.595 128.115 673.905 123.435C672.215 118.625 669.42 114.79 665.52 111.93C661.75 108.94 656.485 107.445 649.725 107.445C643.615 107.445 638.545 108.875 634.515 111.735C630.485 114.595 627.43 118.235 625.35 122.655C623.4 127.075 622.36 131.56 622.23 136.11C622.1 138.19 622.035 140.725 622.035 143.715C622.035 146.575 622.1 149.045 622.23 151.125C622.49 155.935 623.53 160.68 625.35 165.36C627.3 169.91 630.225 173.68 634.125 176.67C638.155 179.66 643.355 181.155 649.725 181.155ZM760.042 196.95C746.652 196.95 735.992 192.855 728.062 184.665C720.132 176.345 715.777 165.035 714.997 150.735C714.867 149.045 714.802 146.9 714.802 144.3C714.802 141.57 714.867 139.36 714.997 137.67C715.517 128.44 717.662 120.38 721.432 113.49C725.202 106.47 730.337 101.075 736.837 97.305C743.467 93.535 751.202 91.65 760.042 91.65C769.922 91.65 778.177 93.73 784.807 97.89C791.567 102.05 796.702 107.965 800.212 115.635C803.722 123.305 805.477 132.275 805.477 142.545V145.86C805.477 147.29 805.022 148.395 804.112 149.175C803.332 149.955 802.292 150.345 800.992 150.345H733.522C733.522 150.475 733.522 150.735 733.522 151.125C733.522 151.515 733.522 151.84 733.522 152.1C733.782 157.43 734.952 162.435 737.032 167.115C739.112 171.665 742.102 175.37 746.002 178.23C749.902 181.09 754.582 182.52 760.042 182.52C764.722 182.52 768.622 181.805 771.742 180.375C774.862 178.945 777.397 177.385 779.347 175.695C781.297 173.875 782.597 172.51 783.247 171.6C784.417 169.91 785.327 168.935 785.977 168.675C786.627 168.285 787.667 168.09 789.097 168.09H798.457C799.757 168.09 800.797 168.48 801.577 169.26C802.487 169.91 802.877 170.885 802.747 172.185C802.617 174.135 801.577 176.54 799.627 179.4C797.677 182.13 794.882 184.86 791.242 187.59C787.602 190.32 783.182 192.595 777.982 194.415C772.782 196.105 766.802 196.95 760.042 196.95ZM733.522 136.89H786.952V136.305C786.952 130.455 785.847 125.255 783.637 120.705C781.557 116.155 778.502 112.58 774.472 109.98C770.442 107.25 765.632 105.885 760.042 105.885C754.452 105.885 749.642 107.25 745.612 109.98C741.712 112.58 738.722 116.155 736.642 120.705C734.562 125.255 733.522 130.455 733.522 136.305V136.89ZM833.278 195C831.978 195 830.873 194.61 829.963 193.83C829.183 192.92 828.793 191.815 828.793 190.515V98.28C828.793 96.98 829.183 95.875 829.963 94.965C830.873 94.055 831.978 93.6 833.278 93.6H842.248C843.548 93.6 844.653 94.055 845.563 94.965C846.473 95.875 846.928 96.98 846.928 98.28V106.86C849.528 102.44 853.103 99.125 857.653 96.915C862.203 94.705 867.663 93.6 874.033 93.6H881.833C883.133 93.6 884.173 94.055 884.953 94.965C885.733 95.745 886.123 96.785 886.123 98.085V106.08C886.123 107.38 885.733 108.42 884.953 109.2C884.173 109.98 883.133 110.37 881.833 110.37H870.133C863.113 110.37 857.588 112.45 853.558 116.61C849.528 120.64 847.513 126.165 847.513 133.185V190.515C847.513 191.815 847.058 192.92 846.148 193.83C845.238 194.61 844.133 195 842.833 195H833.278Z" fill="#0EC9AC"/>
<path d="M937.97 196.95C930.69 196.95 924.45 196.04 919.25 194.22C914.05 192.4 909.825 190.19 906.575 187.59C903.325 184.99 900.855 182.39 899.165 179.79C897.605 177.19 896.76 175.11 896.63 173.55C896.5 172.12 896.955 171.015 897.995 170.235C899.035 169.455 900.075 169.065 901.115 169.065H909.695C910.475 169.065 911.06 169.195 911.45 169.455C911.97 169.585 912.62 170.105 913.4 171.015C915.09 172.835 916.975 174.655 919.055 176.475C921.135 178.295 923.67 179.79 926.66 180.96C929.78 182.13 933.615 182.715 938.165 182.715C944.795 182.715 950.255 181.48 954.545 179.01C958.835 176.41 960.98 172.64 960.98 167.7C960.98 164.45 960.07 161.85 958.25 159.9C956.56 157.95 953.44 156.195 948.89 154.635C944.47 153.075 938.36 151.45 930.56 149.76C922.76 147.94 916.585 145.73 912.035 143.13C907.485 140.4 904.235 137.215 902.285 133.575C900.335 129.805 899.36 125.58 899.36 120.9C899.36 116.09 900.79 111.475 903.65 107.055C906.51 102.505 910.67 98.8 916.13 95.94C921.72 93.08 928.675 91.65 936.995 91.65C943.755 91.65 949.54 92.495 954.35 94.185C959.16 95.875 963.125 98.02 966.245 100.62C969.365 103.09 971.705 105.56 973.265 108.03C974.825 110.5 975.67 112.58 975.8 114.27C975.93 115.57 975.54 116.675 974.63 117.585C973.72 118.365 972.68 118.755 971.51 118.755H963.32C962.41 118.755 961.63 118.56 960.98 118.17C960.46 117.78 959.94 117.325 959.42 116.805C958.12 115.115 956.56 113.425 954.74 111.735C953.05 110.045 950.775 108.68 947.915 107.64C945.185 106.47 941.545 105.885 936.995 105.885C930.495 105.885 925.62 107.25 922.37 109.98C919.12 112.71 917.495 116.155 917.495 120.315C917.495 122.785 918.21 124.995 919.64 126.945C921.07 128.895 923.8 130.65 927.83 132.21C931.86 133.77 937.84 135.46 945.77 137.28C954.35 138.97 961.11 141.245 966.05 144.105C970.99 146.965 974.5 150.28 976.58 154.05C978.66 157.82 979.7 162.175 979.7 167.115C979.7 172.575 978.075 177.58 974.825 182.13C971.705 186.68 967.025 190.32 960.785 193.05C954.675 195.65 947.07 196.95 937.97 196.95ZM1043.22 196.95C1033.99 196.95 1026 195.195 1019.24 191.685C1012.61 188.045 1007.47 182.91 1003.83 176.28C1000.19 169.52 998.245 161.46 997.985 152.1C997.855 150.15 997.79 147.55 997.79 144.3C997.79 141.05 997.855 138.45 997.985 136.5C998.245 127.14 1000.19 119.145 1003.83 112.515C1007.47 105.755 1012.61 100.62 1019.24 97.11C1026 93.47 1033.99 91.65 1043.22 91.65C1050.76 91.65 1057.2 92.69 1062.53 94.77C1067.99 96.85 1072.47 99.515 1075.98 102.765C1079.49 106.015 1082.09 109.525 1083.78 113.295C1085.6 117.065 1086.58 120.64 1086.71 124.02C1086.84 125.32 1086.45 126.36 1085.54 127.14C1084.63 127.92 1083.52 128.31 1082.22 128.31H1072.86C1071.56 128.31 1070.59 128.05 1069.94 127.53C1069.29 126.88 1068.64 125.84 1067.99 124.41C1065.65 118.04 1062.46 113.555 1058.43 110.955C1054.4 108.355 1049.4 107.055 1043.42 107.055C1035.62 107.055 1029.25 109.46 1024.31 114.27C1019.5 119.08 1016.9 126.815 1016.51 137.475C1016.38 142.155 1016.38 146.705 1016.51 151.125C1016.9 161.915 1019.5 169.715 1024.31 174.525C1029.25 179.205 1035.62 181.545 1043.42 181.545C1049.4 181.545 1054.4 180.245 1058.43 177.645C1062.46 175.045 1065.65 170.56 1067.99 164.19C1068.64 162.76 1069.29 161.785 1069.94 161.265C1070.59 160.615 1071.56 160.29 1072.86 160.29H1082.22C1083.52 160.29 1084.63 160.68 1085.54 161.46C1086.45 162.24 1086.84 163.28 1086.71 164.58C1086.58 167.31 1085.99 170.105 1084.95 172.965C1083.91 175.825 1082.22 178.75 1079.88 181.74C1077.67 184.6 1074.88 187.2 1071.5 189.54C1068.12 191.75 1064.02 193.57 1059.21 195C1054.53 196.3 1049.2 196.95 1043.22 196.95ZM1151.4 196.95C1141.52 196.95 1133.27 195.065 1126.64 191.295C1120.01 187.525 1114.94 182.325 1111.43 175.695C1107.92 168.935 1105.97 161.265 1105.58 152.685C1105.45 150.475 1105.38 147.68 1105.38 144.3C1105.38 140.79 1105.45 137.995 1105.58 135.915C1105.97 127.205 1107.92 119.535 1111.43 112.905C1115.07 106.275 1120.2 101.075 1126.83 97.305C1133.46 93.535 1141.65 91.65 1151.4 91.65C1161.15 91.65 1169.34 93.535 1175.97 97.305C1182.6 101.075 1187.67 106.275 1191.18 112.905C1194.82 119.535 1196.84 127.205 1197.23 135.915C1197.36 137.995 1197.42 140.79 1197.42 144.3C1197.42 147.68 1197.36 150.475 1197.23 152.685C1196.84 161.265 1194.89 168.935 1191.38 175.695C1187.87 182.325 1182.8 187.525 1176.17 191.295C1169.54 195.065 1161.28 196.95 1151.4 196.95ZM1151.4 181.935C1159.46 181.935 1165.9 179.4 1170.71 174.33C1175.52 169.13 1178.12 161.59 1178.51 151.71C1178.64 149.76 1178.7 147.29 1178.7 144.3C1178.7 141.31 1178.64 138.84 1178.51 136.89C1178.12 127.01 1175.52 119.535 1170.71 114.465C1165.9 109.265 1159.46 106.665 1151.4 106.665C1143.34 106.665 1136.84 109.265 1131.9 114.465C1127.09 119.535 1124.56 127.01 1124.3 136.89C1124.17 138.84 1124.1 141.31 1124.1 144.3C1124.1 147.29 1124.17 149.76 1124.3 151.71C1124.56 161.59 1127.09 169.13 1131.9 174.33C1136.84 179.4 1143.34 181.935 1151.4 181.935ZM1226.52 232.05C1225.22 232.05 1224.12 231.595 1223.21 230.685C1222.43 229.905 1222.04 228.865 1222.04 227.565V98.085C1222.04 96.785 1222.43 95.745 1223.21 94.965C1224.12 94.055 1225.22 93.6 1226.52 93.6H1235.49C1236.79 93.6 1237.83 94.055 1238.61 94.965C1239.52 95.745 1239.98 96.785 1239.98 98.085V106.665C1243.1 102.375 1247.26 98.8 1252.46 95.94C1257.66 93.08 1264.16 91.65 1271.96 91.65C1279.24 91.65 1285.41 92.885 1290.48 95.355C1295.68 97.825 1299.91 101.205 1303.16 105.495C1306.54 109.785 1309.07 114.66 1310.76 120.12C1312.45 125.58 1313.36 131.43 1313.49 137.67C1313.62 139.75 1313.69 141.96 1313.69 144.3C1313.69 146.64 1313.62 148.85 1313.49 150.93C1313.36 157.04 1312.45 162.89 1310.76 168.48C1309.07 173.94 1306.54 178.815 1303.16 183.105C1299.91 187.265 1295.68 190.645 1290.48 193.245C1285.41 195.715 1279.24 196.95 1271.96 196.95C1264.42 196.95 1258.05 195.585 1252.85 192.855C1247.78 189.995 1243.62 186.485 1240.37 182.325V227.565C1240.37 228.865 1239.98 229.905 1239.2 230.685C1238.42 231.595 1237.31 232.05 1235.88 232.05H1226.52ZM1267.86 181.155C1274.62 181.155 1279.89 179.725 1283.66 176.865C1287.56 173.875 1290.35 170.04 1292.04 165.36C1293.73 160.55 1294.71 155.415 1294.97 149.955C1295.1 146.185 1295.1 142.415 1294.97 138.645C1294.71 133.185 1293.73 128.115 1292.04 123.435C1290.35 118.625 1287.56 114.79 1283.66 111.93C1279.89 108.94 1274.62 107.445 1267.86 107.445C1261.49 107.445 1256.29 108.94 1252.26 111.93C1248.36 114.92 1245.44 118.755 1243.49 123.435C1241.67 127.985 1240.63 132.665 1240.37 137.475C1240.24 139.555 1240.17 142.025 1240.17 144.885C1240.17 147.745 1240.24 150.28 1240.37 152.49C1240.5 157.04 1241.54 161.525 1243.49 165.945C1245.57 170.365 1248.62 174.005 1252.65 176.865C1256.68 179.725 1261.75 181.155 1267.86 181.155ZM1378.37 196.95C1364.98 196.95 1354.32 192.855 1346.39 184.665C1338.46 176.345 1334.1 165.035 1333.32 150.735C1333.19 149.045 1333.13 146.9 1333.13 144.3C1333.13 141.57 1333.19 139.36 1333.32 137.67C1333.84 128.44 1335.99 120.38 1339.76 113.49C1343.53 106.47 1348.66 101.075 1355.16 97.305C1361.79 93.535 1369.53 91.65 1378.37 91.65C1388.25 91.65 1396.5 93.73 1403.13 97.89C1409.89 102.05 1415.03 107.965 1418.54 115.635C1422.05 123.305 1423.8 132.275 1423.8 142.545V145.86C1423.8 147.29 1423.35 148.395 1422.44 149.175C1421.66 149.955 1420.62 150.345 1419.32 150.345H1351.85C1351.85 150.475 1351.85 150.735 1351.85 151.125C1351.85 151.515 1351.85 151.84 1351.85 152.1C1352.11 157.43 1353.28 162.435 1355.36 167.115C1357.44 171.665 1360.43 175.37 1364.33 178.23C1368.23 181.09 1372.91 182.52 1378.37 182.52C1383.05 182.52 1386.95 181.805 1390.07 180.375C1393.19 178.945 1395.72 177.385 1397.67 175.695C1399.62 173.875 1400.92 172.51 1401.57 171.6C1402.74 169.91 1403.65 168.935 1404.3 168.675C1404.95 168.285 1405.99 168.09 1407.42 168.09H1416.78C1418.08 168.09 1419.12 168.48 1419.9 169.26C1420.81 169.91 1421.2 170.885 1421.07 172.185C1420.94 174.135 1419.9 176.54 1417.95 179.4C1416 182.13 1413.21 184.86 1409.57 187.59C1405.93 190.32 1401.51 192.595 1396.31 194.415C1391.11 196.105 1385.13 196.95 1378.37 196.95ZM1351.85 136.89H1405.28V136.305C1405.28 130.455 1404.17 125.255 1401.96 120.705C1399.88 116.155 1396.83 112.58 1392.8 109.98C1388.77 107.25 1383.96 105.885 1378.37 105.885C1372.78 105.885 1367.97 107.25 1363.94 109.98C1360.04 112.58 1357.05 116.155 1354.97 120.705C1352.89 125.255 1351.85 130.455 1351.85 136.305V136.89Z" fill="white"/>
</svg>
